HIERARCHY
ROOT root
{
	OFFSET	0	13.1	24.9
	CHANNELS 6  Xposition Yposition Zposition Xrotation Yrotation Zrotation
	JOINT spine_1
	{
		OFFSET	0	9.99999	0
		CHANNELS 3  Xrotation Yrotation Zrotation
		JOINT spine_2
		{
			OFFSET	0	112	-10
			CHANNELS 3  Xrotation Yrotation Zrotation
			JOINT spine_3
			{
				OFFSET	0	206.5	19.3
				CHANNELS 3  Xrotation Yrotation Zrotation
				JOINT spine_4
				{
					OFFSET	0	110.4	14.6
					CHANNELS 3  Xrotation Yrotation Zrotation
					JOINT neck_1
					{
						OFFSET	0	71.8	-50.3
						CHANNELS 3  Xrotation Yrotation Zrotation
						JOINT neck_2
						{
							OFFSET	0	86.2	-25.8
							CHANNELS 3  Xrotation Yrotation Zrotation
							JOINT head_ee
							{
								OFFSET	0	179.8	-8.7
								CHANNELS 3  Xrotation Yrotation Zrotation
								End Site
								{
									OFFSET	1	0	0
								}
							}
						}
					}
					JOINT left_clavicle
					{
						OFFSET	-43.2	22.4	-70.8
						CHANNELS 3  Xrotation Yrotation Zrotation
						JOINT left_shoulder
						{
							OFFSET	-93.9	-5.79999	48.7
							CHANNELS 3  Xrotation Yrotation Zrotation
							JOINT left_elbow
							{
								OFFSET	-291.4	-30.8	15.2
								CHANNELS 3  Xrotation Yrotation Zrotation
								JOINT left_lowarm_twist
								{
									OFFSET	-110.7	-3.89999	13.6
									CHANNELS 3  Xrotation Yrotation Zrotation
									JOINT left_hand
									{
										OFFSET	-110.7	-3.89999	13.6
										CHANNELS 3  Xrotation Yrotation Zrotation
										JOINT left_ee
										{
											OFFSET	-80.8	-5.10001	12.1
											CHANNELS 3  Xrotation Yrotation Zrotation
											End Site
											{
												OFFSET	1	0	0
											}
										}
									}
								}
							}
						}
					}
					JOINT right_clavicle
					{
						OFFSET	43.2	22.4	-70.8
						CHANNELS 3  Xrotation Yrotation Zrotation
						JOINT right_shoulder
						{
							OFFSET	93.9	-5.79999	48.7
							CHANNELS 3  Xrotation Yrotation Zrotation
							JOINT right_elbow
							{
								OFFSET	291.4	-30.8	15.2
								CHANNELS 3  Xrotation Yrotation Zrotation
								JOINT right_lowarm_twist
								{
									OFFSET	110.7	-3.89999	13.6
									CHANNELS 3  Xrotation Yrotation Zrotation
									JOINT right_hand
									{
										OFFSET	110.7	-3.89999	13.6
										CHANNELS 3  Xrotation Yrotation Zrotation
										JOINT right_ee
										{
											OFFSET	80.8	-5.10001	12.1
											CHANNELS 3  Xrotation Yrotation Zrotation
											End Site
											{
												OFFSET	1	0	0
											}
										}
									}
								}
							}
						}
					}
				}
			}
		}
	}
	JOINT left_hip
	{
		OFFSET	-82.8	-127.5	0.300001
		CHANNELS 3  Xrotation Yrotation Zrotation
		JOINT left_knee
		{
			OFFSET	-28.2	-396.7	2.2
			CHANNELS 3  Xrotation Yrotation Zrotation
			JOINT left_ankle
			{
				OFFSET	-11.7	-411.3	35.4
				CHANNELS 3  Xrotation Yrotation Zrotation
				JOINT left_toes
				{
					OFFSET	0	-60	-88.6
					CHANNELS 3  Xrotation Yrotation Zrotation
					JOINT left_foot_ee
					{
						OFFSET	-22.5	-16.5	-42.2
						CHANNELS 3  Xrotation Yrotation Zrotation
						End Site
						{
							OFFSET	1	0	0
						}
					}
				}
			}
		}
	}
	JOINT right_hip
	{
		OFFSET	82.8	-127.5	0.300001
		CHANNELS 3  Xrotation Yrotation Zrotation
		JOINT right_knee
		{
			OFFSET	28.2	-396.7	2.2
			CHANNELS 3  Xrotation Yrotation Zrotation
			JOINT right_ankle
			{
				OFFSET	11.7	-411.3	35.4
				CHANNELS 3  Xrotation Yrotation Zrotation
				JOINT right_toes
				{
					OFFSET	0	-60	-88.6
					CHANNELS 3  Xrotation Yrotation Zrotation
					JOINT right_foot_ee
					{
						OFFSET	22.5	-16.5	-42.2
						CHANNELS 3  Xrotation Yrotation Zrotation
						End Site
						{
							OFFSET	1	0	0
						}
					}
				}
			}
		}
	}
}
MOTION
Frames: 14
Frame Time: 0.02
403.089284376 719.13 -1194.41853032 -144.437672906 -8.32251496812 -178.751361559 14.169 0.512687 3.61983 14.1763 0.281466 3.64507 14.1694 0.411573 3.63269 14.1523 0.979769 3.52234 -19.3098 6.13896 -4.25778 -19.5349 14.036 -1.4417 -0.0 0.0 -0.0 -4.9201 18.2945 -5.3629 -17.0201 -46.6952 59.3224 0.659897 -18.1023 0.105123 31.1269 0.0301543 -3.92762 2.34105 -28.927 2.67984 -0.0 0.0 -0.0 10.0255 -1.56772 -19.6228 71.1027 -76.6743 8.89652 0.4743 13.2223 -0.0549722 84.9457 4.42002 8.86362 -3.58533 -17.1194 15.0783 0.0 0.0 0.0 47.3434 16.7717 5.36787 -31.153 -0.00182227 4.72244 33.62 17.1756 -4.34834 20.9879 -0.0 -0.0 -0.0 0.0 -0.0 54.441 17.3006 2.70341 -24.7035 -0.210236 -3.75586 42.5708 -25.4899 5.42512 -32.5847 0.0 0.0 0.0 0.0 0.0 
405.008630366 720.921 -1191.10476752 -144.889010512 -7.24904992875 -179.663094929 14.0512 0.485995 3.94378 14.0598 0.23426 3.96666 14.0469 0.367401 3.95657 14.0265 0.987194 3.84917 -19.5009 5.98229 -4.59301 -19.7167 13.8956 -1.79793 -0.0 0.0 -0.0 -5.13794 17.051 -6.01812 -15.3955 -48.0852 58.8763 0.697019 -19.0489 0.116948 25.7294 0.178487 -3.25438 1.69673 -28.6841 -1.28199 -0.0 0.0 -0.0 9.73282 -3.20601 -18.9307 68.5882 -76.0263 6.62457 0.419131 11.7296 -0.043053 83.6517 4.26582 8.80207 -3.4589 -16.9961 14.3495 0.0 0.0 0.0 46.9685 14.5846 5.2944 -30.0769 0.0411146 4.56287 34.627 14.247 -4.41168 16.8437 -0.0 -0.0 -0.0 0.0 -0.0 53.8523 17.7147 2.22754 -20.6047 -0.28796 -3.13182 42.5119 -24.9355 5.4003 -39.3971 0.0 0.0 0.0 0.0 0.0 
404.697724997 720.921 -1190.79847336 -144.978198114 -6.16893945127 179.573531831 14.0512 0.485995 3.94378 14.0598 0.23426 3.96666 14.0469 0.367401 3.95657 14.0265 0.987194 3.84917 -19.5009 5.98229 -4.59301 -19.7167 13.8956 -1.79793 -0.0 0.0 -0.0 -5.13794 17.051 -6.01812 -15.3955 -48.0852 58.8763 0.697019 -19.0489 0.116948 25.7294 0.178487 -3.25438 1.69673 -28.6841 -1.28199 -0.0 0.0 -0.0 9.73282 -3.20601 -18.9307 68.5882 -76.0263 6.62457 0.419131 11.7296 -0.043053 83.6517 4.26582 8.80207 -3.4589 -16.9961 14.3495 0.0 0.0 0.0 46.9685 14.5846 5.2944 -30.0769 0.0411146 4.56287 34.627 14.247 -4.41168 16.8437 -0.0 -0.0 -0.0 0.0 -0.0 53.8523 17.7147 2.22754 -20.6047 -0.28796 -3.13182 42.5119 -24.9355 5.4003 -39.3971 0.0 0.0 0.0 0.0 0.0 
413.298016024 733.268 -1166.92579177 -144.952507473 -6.02314353649 179.895154338 14.2119 0.533128 4.25688 14.222 0.261426 4.28212 14.2072 0.417276 4.26977 14.1834 1.08579 4.15065 -20.754 6.44145 -8.0428 -21.0002 16.3974 -4.6594 -0.0 0.0 -0.0 -4.23492 15.3014 -4.99028 -10.0314 -42.3043 60.9796 0.864547 -23.1838 0.177342 21.3585 0.251744 -2.70098 -0.496392 -28.6384 -15.3304 -0.0 0.0 -0.0 8.84345 -12.7739 -16.4641 49.8113 -72.3638 -7.9509 0.381828 10.711 -0.0357942 82.1523 4.08891 8.72641 -2.74313 -7.60434 14.807 0.0 0.0 0.0 43.187 30.6289 3.38493 -22.9059 0.24982 3.48286 40.4989 7.50133 -4.90571 0.900266 -0.0 -0.0 -0.0 0.0 -0.0 59.5892 24.8916 -2.23077 -29.8977 -0.0479705 -4.53623 39.9702 -26.3944 5.2124 -29.0463 0.0 0.0 0.0 0.0 0.0 
413.423302145 733.268 -1166.99866744 -144.9407513 -6.17989683674 -179.994241583 14.2119 0.533128 4.25688 14.222 0.261426 4.28212 14.2072 0.417276 4.26977 14.1834 1.08579 4.15065 -20.754 6.44145 -8.0428 -21.0002 16.3974 -4.6594 -0.0 0.0 -0.0 -4.23492 15.3014 -4.99028 -10.0314 -42.3043 60.9796 0.864547 -23.1838 0.177342 21.3585 0.251744 -2.70098 -0.496392 -28.6384 -15.3304 -0.0 0.0 -0.0 8.84345 -12.7739 -16.4641 49.8113 -72.3638 -7.9509 0.381828 10.711 -0.0357942 82.1523 4.08891 8.72641 -2.74313 -7.60434 14.807 0.0 0.0 0.0 43.187 30.6289 3.38493 -22.9059 0.24982 3.48286 40.4989 7.50133 -4.90571 0.900266 -0.0 -0.0 -0.0 0.0 -0.0 59.5892 24.8916 -2.23077 -29.8977 -0.0479705 -4.53623 39.9702 -26.3944 5.2124 -29.0463 0.0 0.0 0.0 0.0 0.0 
413.950241778 733.268 -1167.31136655 -144.887643383 -6.84232179817 -179.525911098 14.2119 0.533128 4.25688 14.222 0.261426 4.28212 14.2072 0.417276 4.26977 14.1834 1.08579 4.15065 -20.754 6.44145 -8.0428 -21.0002 16.3974 -4.6594 -0.0 0.0 -0.0 -4.23492 15.3014 -4.99028 -10.0314 -42.3043 60.9796 0.864547 -23.1838 0.177342 21.3585 0.251744 -2.70098 -0.496392 -28.6384 -15.3304 -0.0 0.0 -0.0 8.84345 -12.7739 -16.4641 49.8113 -72.3638 -7.9509 0.381828 10.711 -0.0357942 82.1523 4.08891 8.72641 -2.74313 -7.60434 14.807 0.0 0.0 0.0 43.187 30.6289 3.38493 -22.9059 0.24982 3.48286 40.4989 7.50133 -4.90571 0.900266 -0.0 -0.0 -0.0 0.0 -0.0 59.5892 24.8916 -2.23077 -29.8977 -0.0479705 -4.53623 39.9702 -26.3944 5.2124 -29.0463 0.0 0.0 0.0 0.0 0.0 
414.238583806 734.337 -1170.05747864 -145.040122663 -9.34426064796 -177.740179504 13.8932 0.630086 4.37651 13.9038 0.350597 4.40765 13.8953 0.487306 4.39466 13.8703 1.17462 4.26297 -20.7644 4.91242 -8.19323 -20.8658 13.527 -5.48525 -0.0 0.0 -0.0 -2.71975 14.4356 -2.70654 -12.1975 -43.4416 56.4156 0.991229 -26.1517 0.230231 21.3845 0.251433 -2.70429 -0.82928 -28.5807 -17.4985 -0.0 0.0 -0.0 8.96435 -12.7206 -16.6835 47.4631 -71.4963 -9.81913 0.317632 8.94212 -0.0248368 81.2899 3.98807 8.6808 -2.51276 -5.09219 14.5254 0.0 0.0 0.0 43.3443 31.7274 2.88572 -23.8099 0.230985 3.6203 38.5924 4.00081 -4.73478 -0.60388 0.0 0.0 -0.0 0.0 -0.0 65.6581 25.8997 -4.26976 -29.821 -0.0508801 -4.52482 30.8404 -25.2497 4.21007 -27.0599 0.0 0.0 0.0 0.0 0.0 
442.549498621 746.46 -1144.84975431 -143.599573677 -15.2530949777 -171.841273396 14.1463 0.783263 4.46585 14.1572 0.497798 4.50653 14.1586 0.658657 4.48588 14.1331 1.35819 4.32607 -21.7853 4.97578 -10.302 -21.8479 14.5148 -7.32932 -0.0 0.0 -0.0 -1.97071 15.4825 -1.31528 -11.2418 -37.6607 54.4001 1.39951 -34.7307 0.43767 10.4355 0.249164 -1.30792 0.314343 -28.6905 -10.0945 -0.0 0.0 -0.0 9.66871 -18.238 -17.1995 48.3454 -66.9217 -5.18192 0.306077 8.62181 -0.0230727 76.1568 3.40299 8.37846 -1.32237 4.48274 10.8702 0.0 0.0 0.0 36.1542 42.2012 4.47371 -16.6546 0.320468 2.52674 34.2974 -1.00653 -4.35891 -3.35323 0.0 0.0 -0.0 0.0 -0.0 67.9181 23.0425 -7.21441 -18.787 -0.308101 -2.85366 4.4585 -16.889 0.652372 -22.5634 0.0 0.0 0.0 0.0 0.0 
481.768552446 744.026 -1131.7773711 -145.48570659 -15.8334993647 -173.073176228 14.3247 0.757157 4.35029 14.3351 0.479076 4.38955 14.3355 0.649164 4.36768 14.3113 1.3302 4.21081 -24.808 3.34843 -10.8107 -24.7333 11.0427 -8.38273 -0.0 0.0 -0.0 -2.50293 19.2238 -1.48728 -11.9518 -36.0352 54.3445 1.78499 -41.4803 0.675967 11.7757 0.263778 -1.47847 0.0651356 -24.3012 -9.88152 -0.0 0.0 -0.0 9.6043 -16.7765 -17.3035 47.7358 -64.2518 -4.31214 0.276356 7.79544 -0.0188291 75.8805 3.37229 8.36071 -1.25045 15.2665 15.0347 0.0 0.0 0.0 24.6242 55.3058 11.5294 -13.3575 0.315627 2.02096 34.0588 -3.62206 -4.36314 -9.05978 0.0 0.0 -0.0 0.0 -0.0 68.8631 26.083 -8.80111 -17.6458 -0.316233 -2.67876 -7.53574 -10.5815 -1.12004 -24.0773 0.0 0.0 0.0 0.0 0.0 
502.407435863 738.044 -1122.21773582 -144.4540143 -19.9602209934 -170.306908614 14.3834 0.579569 4.1576 14.3929 0.314073 4.18599 14.3826 0.479292 4.17033 14.3601 1.13137 4.04266 -24.3276 5.87665 -9.8581 -24.5469 15.5942 -6.23149 -0.0 0.0 -0.0 -3.2413 19.5658 -2.52463 -12.0807 -35.4683 55.6834 2.08208 -45.8801 0.881298 9.69996 0.239448 -1.21447 -1.10642 -24.2745 -17.6944 -0.0 0.0 -0.0 8.89919 -19.0793 -15.8303 45.1934 -61.3836 -6.46586 0.236835 6.69159 -0.0138458 75.8782 3.37204 8.36056 -0.995203 11.4664 11.6615 0.0 0.0 0.0 21.1795 56.5635 13.4472 -14.9374 0.321579 2.26328 35.5151 -1.00579 -4.47689 -11.3203 0.0 0.0 -0.0 0.0 -0.0 68.31 23.8093 -7.80678 -12.5426 -0.309945 -1.89606 -17.9992 -2.44265 -2.71988 -23.5945 0.0 0.0 0.0 0.0 0.0 
524.024097387 732.826 -1115.71644794 -143.752920591 -23.4175700418 -167.359608783 14.0788 0.553063 3.96124 14.0875 0.300084 3.98835 14.0789 0.436302 3.97577 14.0584 1.05826 3.85728 -23.8112 6.31193 -9.72132 -24.0785 16.4636 -5.93176 -0.0 0.0 -0.0 -3.46346 19.1973 -2.93356 -11.5729 -36.118 55.952 2.31846 -48.9468 1.0554 10.4101 0.248848 -1.3047 -1.52368 -11.5306 -15.3511 -0.0 0.0 -0.0 9.02067 -18.3174 -16.1272 53.0468 -61.0769 1.59329 0.202101 5.71725 -0.0100917 70.9765 2.84232 8.02161 -1.21919 13.5838 14.1094 0.0 0.0 0.0 17.7505 58.5528 14.4249 -13.2858 0.315198 2.00997 33.8028 -2.92375 -4.32946 -15.7532 0.0 0.0 -0.0 0.0 -0.0 66.8451 23.7575 -8.40352 -2.40318 -0.0914618 -0.357441 -20.0585 11.9393 -3.22249 -33.7944 0.0 0.0 0.0 0.0 0.0 
606.564649299 708.6 -1086.31378956 -142.732374825 -26.0947757547 -164.700124625 11.9808 0.767991 3.23698 11.9864 0.560571 3.27922 12.0021 0.554008 3.28034 11.9887 1.06487 3.15189 -17.0217 7.52336 -7.96421 -17.2495 18.8912 -4.66999 -0.0 0.0 -0.0 -2.72649 17.0726 -2.22613 -16.7625 -27.1204 56.2049 3.60762 -60.7548 2.11512 0.0196168 0.000690773 -0.00241007 -2.93829 -8.00154 -23.9126 -0.0 0.0 -0.0 11.3163 -1.68209 -22.2771 87.2643 -67.2334 30.9254 0.43678 12.209 -0.0467131 71.5309 2.90075 8.06219 -0.434317 28.5395 14.8852 0.0 0.0 0.0 3.97387 68.4334 23.6173 -12.7229 0.311356 1.92369 39.1597 -10.0242 -4.95382 -22.1494 0.0 0.0 -0.0 0.0 -0.0 74.9998 25.3537 -12.8336 -15.324 -0.322017 -2.3226 -11.7026 19.1804 -1.97836 -39.4871 0.0 0.0 0.0 0.0 0.0 
627.867709552 705.811 -1078.73104696 -141.740005247 -26.1690696793 -163.418950341 12.2361 0.706742 2.95878 12.2408 0.517122 2.99771 12.2538 0.52417 2.99649 12.2426 0.990637 2.87626 -15.4923 7.32846 -8.59251 -15.6268 19.0499 -5.59297 -0.0 0.0 -0.0 -2.54069 17.7768 -1.8084 -18.4186 -27.4206 56.6121 3.40373 -59.3145 1.93848 -0.782176 -0.0282154 0.0959032 -2.41052 -6.48227 -19.3799 -0.0 0.0 -0.0 11.464 -0.10584 -22.7094 83.6479 -66.8512 27.9619 0.33635 9.4598 -0.0278298 69.2997 2.66803 7.89546 -0.341543 28.5504 14.2835 0.0 0.0 0.0 8.51563 64.3145 19.1166 -14.0052 0.318875 2.12029 39.5744 -8.2773 -4.95241 -18.1714 0.0 0.0 -0.0 0.0 -0.0 74.8257 25.46 -13.0932 -15.5208 -0.322087 -2.35279 -7.87468 15.2972 -1.28071 -38.8953 0.0 0.0 0.0 0.0 0.0 
627.61624879 705.811 -1078.25951435 -141.774729289 -26.0792301798 -163.497811653 12.2361 0.706742 2.95878 12.2408 0.517122 2.99771 12.2538 0.52417 2.99649 12.2426 0.990637 2.87626 -15.4923 7.32846 -8.59251 -15.6268 19.0499 -5.59297 -0.0 0.0 -0.0 -2.54069 17.7768 -1.8084 -18.4186 -27.4206 56.6121 3.40373 -59.3145 1.93848 -0.782176 -0.0282154 0.0959032 -2.41052 -6.48227 -19.3799 -0.0 0.0 -0.0 11.464 -0.10584 -22.7094 83.6479 -66.8512 27.9619 0.33635 9.4598 -0.0278298 69.2997 2.66803 7.89546 -0.341543 28.5504 14.2835 0.0 0.0 0.0 8.51563 64.3145 19.1166 -14.0052 0.318875 2.12029 39.5744 -8.2773 -4.95241 -18.1714 0.0 0.0 -0.0 0.0 -0.0 74.8257 25.46 -13.0932 -15.5208 -0.322087 -2.35279 -7.87468 15.2972 -1.28071 -38.8953 0.0 0.0 0.0 0.0 0.0 
